<?xml version="1.0" encoding="UTF-8" standalone="no"?>
<!-- Created with Inkscape (http://www.inkscape.org/) -->

<svg
   xmlns:dc="http://purl.org/dc/elements/1.1/"
   xmlns:cc="http://creativecommons.org/ns#"
   xmlns:rdf="http://www.w3.org/1999/02/22-rdf-syntax-ns#"
   xmlns:svg="http://www.w3.org/2000/svg"
   xmlns="http://www.w3.org/2000/svg"
   xmlns:sodipodi="http://sodipodi.sourceforge.net/DTD/sodipodi-0.dtd"
   xmlns:inkscape="http://www.inkscape.org/namespaces/inkscape"
   width="32px"
   height="32px"
   id="svg3041"
   version="1.1"
   inkscape:version="0.48.3.1 r9886"
   sodipodi:docname="MedsTakenEvent.svg">
  <defs
     id="defs3043">
    <inkscape:perspective
       sodipodi:type="inkscape:persp3d"
       inkscape:vp_x="-59.49714 : 18.333897 : 1"
       inkscape:vp_y="0 : 2988.2519 : 0"
       inkscape:vp_z="45.404952 : 18.333897 : 1"
       inkscape:persp3d-origin="-7.0460944 : 2.3965555 : 1"
       id="perspective4593" />
  </defs>
  <sodipodi:namedview
     id="base"
     pagecolor="#ffffff"
     bordercolor="#666666"
     borderopacity="1.0"
     inkscape:pageopacity="0"
     inkscape:pageshadow="2"
     inkscape:zoom="12.208641"
     inkscape:cx="-0.59532448"
     inkscape:cy="2.8271731"
     inkscape:current-layer="layer1"
     showgrid="true"
     inkscape:grid-bbox="true"
     inkscape:document-units="px"
     inkscape:window-width="1920"
     inkscape:window-height="1030"
     inkscape:window-x="0"
     inkscape:window-y="0"
     inkscape:window-maximized="1" />
  <metadata
     id="metadata3046">
    <rdf:RDF>
      <cc:Work
         rdf:about="">
        <dc:format>image/svg+xml</dc:format>
        <dc:type
           rdf:resource="http://purl.org/dc/dcmitype/StillImage" />
        <dc:title></dc:title>
      </cc:Work>
    </rdf:RDF>
  </metadata>
  <g
     id="layer1"
     inkscape:label="Layer 1"
     inkscape:groupmode="layer">
    <path
       style="fill:#000000;stroke:#000000;stroke-width:0.7416662px;stroke-linecap:butt;stroke-linejoin:miter;stroke-opacity:1"
       d="m 5.6229073,28.584754 8.3226507,-0.06075 c 0.566489,-0.203001 1.112127,-0.426854 1.518732,-0.789739 0.325265,-1.314172 0.979833,-1.332859 0.182248,-3.280462 l -0.911239,-0.85049 0.485994,-0.607494 -5.5889328,-2.186973 4.9206918,-2.308472 -0.485995,-1.397233 3.219712,-0.303747 -4.799194,-7.2899152 C 12.162265,7.5636589 13.088608,3.9955814 5.4406604,4.1027921"
       id="path3117"
       inkscape:connector-curvature="0"
       sodipodi:nodetypes="cccccccccccc" />
    <rect
       style="fill:none;stroke:#00ff00;stroke-width:1px;stroke-linecap:butt;stroke-linejoin:miter;stroke-opacity:1"
       id="rect4491"
       width="31.084541"
       height="30.920723"
       x="0.59384161"
       y="0.56734473" />
    <text
       xml:space="preserve"
       style="font-size:20px;font-style:normal;font-weight:normal;line-height:125%;letter-spacing:0px;word-spacing:0px;fill:#000000;fill-opacity:1;stroke:none;font-family:Sans"
       x="1.6586609"
       y="7.4067636"
       id="text4493"
       sodipodi:linespacing="125%"><tspan
         sodipodi:role="line"
         id="tspan4495"
         x="1.6586609"
         y="7.4067636"
         style="font-size:8px">T</tspan></text>
    <g
       id="g3801"
       transform="matrix(0.50979568,0,0,0.50979568,37.439274,16.958959)">
      <path
         inkscape:connector-curvature="0"
         id="path3777"
         d="m -36.285775,6.0347841 18.183842,0 -1.556275,17.2828409 -14.661746,0 z"
         style="fill:none;stroke:#000000;stroke-width:0.5;stroke-linecap:butt;stroke-linejoin:miter;stroke-miterlimit:4;stroke-opacity:1;stroke-dasharray:none" />
      <path
         transform="matrix(1.0208815,0,0,1,0.9676038,3.3992317)"
         d="m -18.675297,2.6355524 c 0,0.8821254 -3.997247,1.5972294 -8.928102,1.5972294 -4.930855,0 -8.928103,-0.715104 -8.928103,-1.5972294 0,-0.8821254 3.997248,-1.5972294 8.928103,-1.5972294 4.930855,0 8.928102,0.715104 8.928102,1.5972294 z"
         sodipodi:ry="1.5972294"
         sodipodi:rx="8.9281025"
         sodipodi:cy="2.6355524"
         sodipodi:cx="-27.603399"
         id="path3775"
         style="fill:#e6e6e6;fill-opacity:1;stroke:#000000;stroke-width:0.5;stroke-linecap:round;stroke-linejoin:round;stroke-miterlimit:4;stroke-opacity:1;stroke-dasharray:none"
         sodipodi:type="arc" />
      <path
         sodipodi:nodetypes="ccccc"
         inkscape:connector-curvature="0"
         id="path3797"
         d="m -34.852364,10.335017 c 4.111983,1.341247 11.893037,1.04414 15.480839,0.204774 l -0.982911,11.917787 -13.146426,-0.204772 z"
         style="fill:#80b3ff;stroke:#80b3ff;stroke-width:1px;stroke-linecap:butt;stroke-linejoin:miter;stroke-opacity:1" />
      <path
         transform="matrix(1.2435005,0,0,1,12.439518,7.4946917)"
         d="m -25.309943,1.6526419 c 0,0.4749906 -2.897087,0.8600466 -6.470826,0.8600466 -3.573739,0 -6.470827,-0.385056 -6.470827,-0.8600466 0,-0.4749906 2.897088,-0.86004657 6.470827,-0.86004657 3.573739,0 6.470826,0.38505597 6.470826,0.86004657 z"
         sodipodi:ry="0.86004657"
         sodipodi:rx="6.4708266"
         sodipodi:cy="1.6526419"
         sodipodi:cx="-31.780769"
         id="path3799"
         style="fill:#5599ff;fill-opacity:1;stroke:#5599ff;stroke-width:0.5;stroke-linecap:round;stroke-linejoin:round;stroke-miterlimit:4;stroke-opacity:1;stroke-dasharray:none"
         sodipodi:type="arc" />
    </g>
  </g>
</svg>
