<?xml version="1.0" encoding="UTF-8" standalone="no"?>
<!-- Created with Inkscape (http://www.inkscape.org/) -->

<svg
   xmlns:dc="http://purl.org/dc/elements/1.1/"
   xmlns:cc="http://creativecommons.org/ns#"
   xmlns:rdf="http://www.w3.org/1999/02/22-rdf-syntax-ns#"
   xmlns:svg="http://www.w3.org/2000/svg"
   xmlns="http://www.w3.org/2000/svg"
   xmlns:sodipodi="http://sodipodi.sourceforge.net/DTD/sodipodi-0.dtd"
   xmlns:inkscape="http://www.inkscape.org/namespaces/inkscape"
   width="32px"
   height="32px"
   id="svg3041"
   version="1.1"
   inkscape:version="0.48.3.1 r9886"
   sodipodi:docname="Eat.svg">
  <defs
     id="defs3043">
    <inkscape:perspective
       sodipodi:type="inkscape:persp3d"
       inkscape:vp_x="-59.49714 : 18.333897 : 1"
       inkscape:vp_y="0 : 2988.2519 : 0"
       inkscape:vp_z="45.404952 : 18.333897 : 1"
       inkscape:persp3d-origin="-7.0460944 : 2.3965555 : 1"
       id="perspective4593" />
  </defs>
  <sodipodi:namedview
     id="base"
     pagecolor="#ffffff"
     bordercolor="#666666"
     borderopacity="1.0"
     inkscape:pageopacity="0"
     inkscape:pageshadow="2"
     inkscape:zoom="12.208641"
     inkscape:cx="-0.59532448"
     inkscape:cy="2.8271731"
     inkscape:current-layer="layer1"
     showgrid="true"
     inkscape:grid-bbox="true"
     inkscape:document-units="px"
     inkscape:window-width="1920"
     inkscape:window-height="1030"
     inkscape:window-x="0"
     inkscape:window-y="0"
     inkscape:window-maximized="1" />
  <metadata
     id="metadata3046">
    <rdf:RDF>
      <cc:Work
         rdf:about="">
        <dc:format>image/svg+xml</dc:format>
        <dc:type
           rdf:resource="http://purl.org/dc/dcmitype/StillImage" />
        <dc:title></dc:title>
      </cc:Work>
    </rdf:RDF>
  </metadata>
  <g
     id="layer1"
     inkscape:label="Layer 1"
     inkscape:groupmode="layer">
    <path
       style="fill:#000000;stroke:#000000;stroke-width:0.7416662px;stroke-linecap:butt;stroke-linejoin:miter;stroke-opacity:1"
       d="m 5.6229073,28.584754 8.3226507,-0.06075 c 0.566489,-0.203001 1.112127,-0.426854 1.518732,-0.789739 0.325265,-1.314172 0.979833,-1.332859 0.182248,-3.280462 l -0.911239,-0.85049 0.485994,-0.607494 -5.5889328,-2.186973 4.9206918,-2.308472 -0.485995,-1.397233 3.219712,-0.303747 -4.799194,-7.2899152 C 12.162265,7.5636589 13.088608,3.9955814 5.4406604,4.1027921"
       id="path3117"
       inkscape:connector-curvature="0"
       sodipodi:nodetypes="cccccccccccc" />
    <rect
       style="fill:none;stroke:#00ff00;stroke-width:1px;stroke-linecap:butt;stroke-linejoin:miter;stroke-opacity:1"
       id="rect4491"
       width="31.084541"
       height="30.920723"
       x="0.59384161"
       y="0.56734473" />
    <text
       xml:space="preserve"
       style="font-size:20px;font-style:normal;font-weight:normal;line-height:125%;letter-spacing:0px;word-spacing:0px;fill:#000000;fill-opacity:1;stroke:none;font-family:Sans"
       x="1.6586609"
       y="7.4067636"
       id="text4493"
       sodipodi:linespacing="125%"><tspan
         sodipodi:role="line"
         id="tspan4495"
         x="1.6586609"
         y="7.4067636"
         style="font-size:8px">T</tspan></text>
    <g
       id="g3894"
       transform="matrix(0.57540576,0,0,0.57239003,47.582297,9.8377286)">
      <path
         sodipodi:nodetypes="cc"
         inkscape:connector-curvature="0"
         id="path3868"
         d="m -50.210339,25.037718 c 9.501467,3.276368 18.593388,0 18.593388,0"
         style="fill:#ffeeaa;stroke:#deaa87;stroke-width:3;stroke-linecap:round;stroke-linejoin:miter;stroke-miterlimit:4;stroke-opacity:1;stroke-dasharray:none" />
      <path
         sodipodi:nodetypes="cccc"
         inkscape:connector-curvature="0"
         id="path3870"
         d="M -41.50524,0.54686777 -50.590802,23.890989 c 10.278616,3.522096 19.272405,-0.163819 19.272405,-0.163819 z"
         style="fill:#ffeeaa;stroke:#deaa87;stroke-width:1.05850267px;stroke-linecap:butt;stroke-linejoin:miter;stroke-opacity:1" />
      <path
         transform="matrix(0.79034696,0,0,0.79034696,-18.10508,-13.83073)"
         d="m -31.207405,41.665287 c 0,1.221404 -0.990144,2.211548 -2.211548,2.211548 -1.221404,0 -2.211548,-0.990144 -2.211548,-2.211548 0,-1.221404 0.990144,-2.211548 2.211548,-2.211548 1.221404,0 2.211548,0.990144 2.211548,2.211548 z"
         sodipodi:ry="2.2115483"
         sodipodi:rx="2.2115483"
         sodipodi:cy="41.665287"
         sodipodi:cx="-33.418953"
         id="path3872"
         style="fill:#ff5555;fill-opacity:1;stroke:#ff5555;stroke-width:3;stroke-linecap:round;stroke-linejoin:round;stroke-miterlimit:4;stroke-opacity:1;stroke-dasharray:none"
         sodipodi:type="arc" />
      <path
         inkscape:transform-center-y="1.4480157"
         inkscape:transform-center-x="-1.6775981"
         transform="matrix(0.3028264,0.68977129,-0.68977129,0.3028264,-12.083422,12.272888)"
         sodipodi:end="3.1723522"
         sodipodi:start="0"
         d="m -16.627567,32.040955 c 0,1.379734 -1.118496,2.49823 -2.49823,2.49823 -1.379735,0 -2.498231,-1.118496 -2.498231,-2.49823 0,-0.02562 3.94e-4,-0.05123 0.0012,-0.07683 l 2.497049,0.07683 z"
         sodipodi:ry="2.4982305"
         sodipodi:rx="2.4982305"
         sodipodi:cy="32.040955"
         sodipodi:cx="-19.125797"
         id="path3874"
         style="fill:#ff5555;fill-opacity:1;stroke:#ff5555;stroke-width:3;stroke-linecap:butt;stroke-linejoin:round;stroke-miterlimit:4;stroke-opacity:1;stroke-dasharray:none"
         sodipodi:type="arc" />
      <path
         transform="matrix(0.79034696,0,0,0.79034696,-10.692299,-11.578229)"
         d="m -31.207405,41.665287 c 0,1.221404 -0.990144,2.211548 -2.211548,2.211548 -1.221404,0 -2.211548,-0.990144 -2.211548,-2.211548 0,-1.221404 0.990144,-2.211548 2.211548,-2.211548 1.221404,0 2.211548,0.990144 2.211548,2.211548 z"
         sodipodi:ry="2.2115483"
         sodipodi:rx="2.2115483"
         sodipodi:cy="41.665287"
         sodipodi:cx="-33.418953"
         id="path3872-4"
         style="fill:#ff5555;fill-opacity:1;stroke:#ff5555;stroke-width:3;stroke-linecap:round;stroke-linejoin:round;stroke-miterlimit:4;stroke-opacity:1;stroke-dasharray:none"
         sodipodi:type="arc" />
    </g>
  </g>
</svg>
